<svg width="360" height="81" viewBox="0 0 360 81" fill="none" xmlns="http://www.w3.org/2000/svg">
<rect y="24.75" width="360" height="29" rx="14.5" fill="#CFADFC"/>
<rect x="28" y="8.75" width="32" height="35" fill="#8DC63F"/>
<g clip-path="url(#clip0_925_206)">
<path d="M182.699 28.8128C181.584 27.563 180.232 26.5496 178.644 25.8403C177.056 25.131 175.231 24.7594 173.237 24.7594H170.533V53.3357H173.237C175.298 53.3357 177.123 52.9642 178.712 52.2548C180.3 51.5455 181.686 50.5321 182.767 49.2823C183.882 48.0325 184.727 46.5125 185.302 44.7898C185.876 43.0672 186.18 41.1418 186.18 39.0476C186.18 36.9533 185.876 35.1293 185.268 33.3728C184.659 31.6164 183.815 30.0963 182.699 28.8466V28.8128Z" fill="#3A3A3A"/>
<path d="M45.7301 24.5229H43.939C43.4997 24.5229 43.1279 24.8607 43.0603 25.2998L42.8238 27.0563C42.7562 27.5968 43.1617 28.0697 43.7024 28.0697H45.4936C45.9329 28.0697 46.3047 27.7319 46.3722 27.2928L46.6088 25.5363C46.6764 24.9958 46.2709 24.5229 45.7301 24.5229Z" fill="#3A3A3A"/>
<path d="M340.861 23.746C338.9 19.1184 336.197 15.0651 332.784 11.5859C329.37 8.10676 325.383 5.33695 320.82 3.20892C316.258 1.11468 311.391 0.0675563 306.187 0.0675563H45.7293C45.7293 0.0675563 45.3913 0.0675563 45.2223 0.0675563C45.121 0.0675563 45.0196 0.0675563 44.9182 0.0675563C44.614 0.0675563 44.3437 0 44.0395 0C38.9027 0 34.1038 1.45246 29.9808 3.91827C29.8118 4.0196 29.6429 4.12093 29.4739 4.22227C21.87 9.08632 16.8008 17.5646 16.8008 27.2252C16.8008 41.9525 28.4344 52.8966 43 53.4032H47.7241H81.0788C83.0051 53.3357 84.7415 52.5165 85.3707 51.8832C86 51.25 86.2099 50.9137 86.5 49.75C86.6879 48.9962 86.655 48.1676 86.4184 47.5934C86.1818 47.0192 85.7763 46.5125 85.2018 46.0396C84.6273 45.5667 83.9176 45.1276 83.0051 44.7223C82.0926 44.3169 81.0112 43.8778 79.727 43.3711C78.2062 42.8307 76.7192 42.2227 75.2323 41.5809C73.7791 40.9391 72.4611 40.0609 71.312 38.98C70.163 37.8991 69.2505 36.548 68.5409 34.8928C67.8312 33.2377 67.4932 31.1435 67.4932 28.6101C67.4932 26.0767 67.865 23.7798 68.6084 21.7194C69.3519 19.6589 70.3996 17.9024 71.7514 16.45C73.1032 14.9975 74.7253 13.849 76.6854 13.0384C78.6455 12.2277 80.8084 11.8224 83.2079 11.8224C85.4383 11.8224 87.804 12.1601 90.2372 12.8695C92.6704 13.5788 95.0361 14.5922 97.2666 15.9433L92.5691 26.3132C91.2849 25.1309 90.0007 24.2865 88.7164 23.7123C87.4322 23.138 86.1818 22.8678 84.999 22.8678C83.4782 22.8678 82.2278 23.2731 81.2816 24.0838C80.3015 24.8945 79.8284 25.9416 79.8284 27.259C79.8284 28.171 80.0649 28.9141 80.5381 29.4883C81.0112 30.0626 81.6533 30.5692 82.4306 31.0083C83.2079 31.4475 84.0865 31.819 85.0666 32.123C86.0466 32.427 87.0267 32.7648 87.973 33.1364C91.8256 34.5888 94.6306 36.5142 96.4217 38.9124C98.2128 41.3445 99.0915 44.4858 99.0915 48.3703C99.0915 51.005 98.686 53.3695 97.9087 55.4975C97.1314 57.6255 95.9824 59.4495 94.4616 60.9358C92.9408 62.4558 91.1159 63.638 88.9192 64.4487C86.7225 65.2932 84.2555 65.6985 81.4843 65.6985C81.4167 65.6985 81.3491 65.6985 81.2816 65.6985L57.1182 65.7323C52.9614 65.8336 49.6495 69.2114 49.6495 73.3999C49.6495 77.5884 53.0628 81.0338 57.2871 81.0338C57.3209 81.0338 57.3885 81.0338 57.4223 81.0338H306.018C311.29 81.0338 316.224 79.8515 320.786 77.7573C325.349 75.6631 329.336 72.8595 332.75 69.3465C336.163 65.8336 338.833 61.7465 340.759 57.1189C342.686 52.4912 343.632 43.2698 343.632 38.2706C343.632 33.2715 342.652 28.3736 340.692 23.7123L340.861 23.746ZM56.5774 23.6447C56.5774 24.1176 56.1719 24.5229 55.6988 24.5229H52.9952C52.5558 24.5229 52.1841 24.8607 52.1165 25.2998L51.8799 27.0563C51.8124 27.5967 52.2179 28.0696 52.7586 28.0696H54.6849C55.1581 28.0696 55.5636 28.475 55.5636 28.9479V31.9541C55.5636 32.427 55.1581 32.8324 54.6849 32.8324H51.9137C51.4744 32.8324 51.1027 33.1701 51.0351 33.6093L50.2578 39.6893C50.1902 40.1284 49.8185 40.4662 49.3791 40.4662H45.6955C45.1547 40.4662 44.7492 39.9933 44.8168 39.4867L45.5603 33.8795C45.6279 33.339 45.2223 32.8999 44.6816 32.8999H42.8905C42.4512 32.8999 42.0794 33.2377 42.0118 33.6768L41.2345 39.7569C41.1669 40.196 40.7952 40.5338 40.3559 40.5338H36.706C36.1653 40.5338 35.7598 40.0609 35.8273 39.5204L36.5708 33.9133C36.6384 33.3728 36.2329 32.8999 35.6922 32.8999H33.7658C33.2927 32.8999 32.8872 32.4946 32.8872 32.0217V29.0154C32.8872 28.5425 33.2927 28.1372 33.7658 28.1372H36.5032C36.9426 28.1372 37.3143 27.7994 37.3819 27.3603L37.6185 25.6038C37.6861 25.0634 37.2805 24.6243 36.7398 24.6243H34.8811C34.408 24.6243 34.0024 24.2189 34.0024 23.746V20.7736C34.0024 20.3007 34.408 19.8953 34.8811 19.8953H37.5847C38.024 19.8953 38.3958 19.5575 38.4633 19.1184L39.173 13.6126C39.2406 13.1735 39.6124 12.8357 40.0517 12.8357H43.6678C44.2085 12.8357 44.614 13.3086 44.5464 13.8153L43.8705 18.882C43.803 19.4224 44.2085 19.8616 44.7492 19.8616H46.5403C46.9797 19.8616 47.3514 19.5238 47.419 19.0847L48.1625 13.545C48.2301 13.1059 48.6018 12.7681 49.0412 12.7681H52.7248C53.2655 12.7681 53.6711 13.241 53.6035 13.7477L52.9276 18.8144C52.86 19.3549 53.2655 19.794 53.8063 19.794H55.665C56.1381 19.794 56.5436 20.1993 56.5436 20.6722V23.6447H56.5774ZM131.332 64.5838H105.411V13.5113H117.206V53.3357H131.332V64.5838ZM149.209 64.5838H137.415V13.5113H149.209V64.5838ZM196.793 48.7081C195.644 51.8157 194.055 54.5179 192.028 56.8824C190 59.2469 187.634 61.1047 184.931 62.4896C182.227 63.8745 179.321 64.5838 176.178 64.5838H158.74V13.5113H176.178C179.253 13.5113 182.159 14.2206 184.863 15.6055C187.567 16.9904 189.932 18.882 191.96 21.1789C193.988 23.5096 195.576 26.2118 196.759 29.3194C197.908 32.427 198.516 35.6697 198.516 39.0475C198.516 42.4254 197.942 45.6005 196.793 48.7081ZM229.979 24.7594H215.954V33.3053H229.202V44.5534H215.954V53.3695H229.979V64.6176H204.16V13.5113H229.979V24.7594ZM269.283 30.5692C266.545 26.8199 263.2 24.9621 259.178 24.9621C257.421 24.9621 255.765 25.3336 254.278 26.043C252.757 26.7523 251.473 27.7319 250.392 28.9817C249.31 30.2314 248.465 31.7177 247.823 33.4066C247.215 35.1293 246.877 36.9871 246.877 38.98C246.877 40.9729 247.181 42.8983 247.823 44.5872C248.431 46.3098 249.31 47.7961 250.425 49.0459C251.541 50.2957 252.825 51.309 254.312 52.0183C255.799 52.7277 257.387 53.0993 259.111 53.0993C262.896 53.0993 266.275 51.309 269.283 47.6947V63.4016L268.066 63.8745C266.275 64.5838 264.585 65.1243 262.997 65.4621C261.442 65.7998 259.888 65.9687 258.367 65.9687C255.224 65.9687 252.25 65.2932 249.378 63.9758C246.505 62.6585 243.97 60.7669 241.808 58.3686C239.611 55.9704 237.854 53.0993 236.536 49.7552C235.218 46.445 234.542 42.7969 234.542 38.8787C234.542 34.9604 235.184 31.3461 236.502 28.0696C237.82 24.7932 239.543 21.9896 241.74 19.5913C243.937 17.2269 246.471 15.3691 249.344 14.0517C252.216 12.7344 255.258 12.0588 258.435 12.0588C260.226 12.0588 262.017 12.2615 263.774 12.7006C265.532 13.1397 267.357 13.7815 269.283 14.6935V30.5354V30.5692ZM303.281 64.5838L287.938 42.4254V64.5838H276.143V13.5113H287.938V34.5888L302.334 13.5113H316.9L298.887 37.6964L318.556 64.5838H303.281Z" fill="#3A3A3A"/>
</g>
<defs>
<clipPath id="clip0_925_206">
<rect width="327" height="81" fill="white" transform="translate(16.8008)"/>
</clipPath>
</defs>
</svg>
